<?xml version="1.0" standalone="no"?>
<!DOCTYPE svg PUBLIC "-//W3C//DTD SVG 20010904//EN"
 "http://www.w3.org/TR/2001/REC-SVG-20010904/DTD/svg10.dtd">
<svg version="1.0" xmlns="http://www.w3.org/2000/svg"
 width="820.000000pt" height="820.000000pt" viewBox="0 0 820.000000 820.000000"
 preserveAspectRatio="xMidYMid meet">
<metadata>
Created by potrace 1.11, written by Peter Selinger 2001-2013
</metadata>
<g transform="translate(0.000000,820.000000) scale(0.100000,-0.100000)"
fill="#000000" stroke="none">
<path d="M3869 8126 c-2 -2 -51 -7 -109 -10 -58 -4 -112 -9 -120 -11 -8 -2
-37 -6 -65 -9 -47 -5 -242 -37 -310 -51 -16 -3 -82 -19 -146 -35 -1247 -314
-2271 -1204 -2754 -2395 -109 -268 -214 -640 -240 -850 -4 -27 -8 -57 -10 -65
-2 -8 -7 -42 -11 -75 -3 -33 -8 -68 -10 -79 -26 -138 -25 -745 1 -910 2 -12 6
-43 10 -71 51 -413 192 -871 390 -1268 263 -525 619 -963 1100 -1356 225 -183
572 -393 866 -524 228 -101 575 -217 728 -243 14 -3 40 -9 56 -14 17 -4 48
-11 70 -15 22 -4 51 -9 65 -12 68 -13 298 -43 390 -51 180 -15 689 -6 785 13
11 2 47 7 80 10 33 3 67 8 75 10 8 2 31 6 50 9 308 46 717 171 1009 307 57 27
105 49 108 49 11 0 262 141 368 208 538 336 1046 863 1346 1397 19 33 42 74
51 90 51 90 152 304 198 420 128 321 216 658 255 980 4 28 8 61 10 74 26 161
27 712 1 901 -2 14 -6 50 -10 80 -11 87 -17 122 -52 309 -27 144 -117 441
-187 621 -239 614 -597 1121 -1122 1590 -278 249 -706 514 -1072 666 -182 76
-450 166 -558 188 -11 3 -58 14 -105 25 -47 11 -99 22 -115 25 -155 29 -248
43 -351 52 -38 3 -80 8 -94 11 -28 6 -565 14 -571 9z m576 -70 c22 -3 67 -8
100 -11 33 -3 69 -8 80 -10 11 -2 43 -7 70 -10 96 -11 388 -74 490 -105 509
-155 909 -354 1290 -641 410 -307 741 -671 1022 -1124 251 -404 468 -1002 527
-1455 4 -25 9 -61 11 -80 3 -19 7 -53 9 -75 3 -22 8 -71 13 -110 15 -138 6
-716 -12 -785 -2 -8 -7 -40 -10 -70 -3 -30 -8 -66 -10 -80 -3 -14 -7 -41 -10
-60 -36 -234 -121 -540 -221 -793 -149 -375 -329 -687 -588 -1017 -117 -149
-329 -375 -461 -490 -339 -296 -637 -487 -1080 -690 -158 -73 -538 -194 -720
-230 -27 -5 -61 -12 -75 -15 -38 -8 -82 -16 -115 -21 -16 -2 -39 -6 -50 -8
-19 -4 -74 -11 -160 -21 -237 -28 -696 -28 -885 0 -14 2 -50 6 -80 10 -46 6
-280 45 -345 59 -81 17 -254 65 -377 106 -587 193 -1116 519 -1553 955 -161
160 -174 175 -310 345 -221 276 -406 584 -543 905 -57 134 -143 369 -162 444
-5 20 -21 81 -35 136 -31 117 -30 109 -55 250 -11 61 -22 119 -24 130 -2 11
-7 47 -11 80 -4 32 -8 66 -10 75 -26 137 -26 744 0 890 2 14 7 50 10 81 3 31
8 67 10 80 6 30 12 64 19 109 41 276 179 701 327 1005 96 199 154 299 284 495
319 479 749 889 1254 1194 99 61 311 171 426 224 204 92 601 223 755 248 14 2
36 7 50 10 14 3 36 8 50 10 14 3 48 9 75 14 48 9 73 13 160 25 73 10 99 13
205 20 58 4 107 9 109 11 6 5 506 -4 556 -10z"/>
<path d="M4016 7863 c-1 -2 -223 -11 -286 -13 -24 0 -25 -2 -22 -55 l4 -55 84
5 84 5 1 -28 c0 -15 2 -54 4 -87 5 -79 14 -270 14 -317 l1 -36 58 3 c31 2 60
4 64 4 4 1 4 61 1 134 -2 72 -6 177 -6 232 l-2 99 50 2 c28 1 65 3 83 3 l32 1
-2 53 -3 52 -78 0 c-43 0 -80 -1 -81 -2z"/>
<path d="M4819 7789 c-121 -18 -204 -107 -233 -252 -29 -140 31 -264 152 -319
136 -61 289 -8 343 120 l17 38 -61 13 c-47 10 -62 10 -65 1 -10 -28 -65 -79
-92 -85 -70 -15 -153 36 -167 103 -10 52 -10 60 3 119 21 98 77 153 154 153
68 0 122 -43 132 -104 2 -14 17 -23 53 -33 73 -19 74 -18 70 30 -5 56 -17 86
-50 125 -57 68 -162 105 -256 91z"/>
<path d="M3100 7729 c-69 -21 -134 -41 -146 -43 -11 -2 -42 -11 -68 -20 -26
-9 -53 -16 -61 -16 -7 0 -16 -4 -20 -9 -8 -15 18 -101 31 -101 7 0 42 9 79 21
37 11 71 17 75 12 7 -7 87 -267 122 -396 10 -36 13 -38 41 -31 16 3 44 12 62
20 l33 13 -64 213 c-36 116 -63 216 -61 222 2 5 37 19 78 31 80 24 79 23 58
93 -6 17 -16 32 -22 31 -7 0 -68 -18 -137 -40z"/>
<path d="M4178 7350 c-2 -34 1 -61 7 -63 6 -1 35 -2 65 -2 l55 0 3 63 4 62
-65 0 -65 0 -4 -60z"/>
<path d="M3422 7346 l-54 -10 6 -47 c9 -73 13 -79 50 -74 76 13 91 20 88 46
-6 44 -23 99 -30 97 -4 0 -31 -6 -60 -12z"/>
<path d="M5141 7184 c-11 -31 -21 -57 -21 -59 0 -2 19 -10 43 -18 23 -8 50
-18 59 -22 13 -5 21 2 33 31 33 79 32 80 -30 103 -30 12 -57 21 -59 21 -2 0
-13 -25 -25 -56z"/>
<path d="M3878 7125 c-2 -2 -40 -7 -83 -10 -66 -6 -240 -34 -370 -60 -122 -25
-302 -82 -465 -147 -887 -357 -1565 -1135 -1795 -2058 -75 -300 -94 -462 -90
-770 2 -239 5 -272 30 -440 70 -464 259 -930 527 -1298 463 -638 1111 -1059
1863 -1210 83 -17 173 -33 200 -36 28 -3 77 -8 110 -13 79 -10 499 -10 595 0
103 11 191 25 280 43 41 9 86 18 100 20 100 19 270 72 435 137 362 141 698
357 983 632 516 496 832 1139 916 1860 14 123 15 533 1 645 -64 531 -240 1000
-527 1408 -85 122 -84 120 -172 226 -68 82 -276 291 -355 356 -29 25 -59 50
-65 55 -77 70 -327 234 -486 318 -240 127 -577 246 -825 292 -54 10 -209 33
-265 40 -60 8 -536 16 -542 10z m532 -69 c19 -3 53 -8 75 -11 22 -3 54 -7 70
-10 17 -3 41 -7 55 -9 311 -49 763 -216 1015 -377 190 -121 260 -172 400 -290
461 -390 792 -917 949 -1509 30 -114 72 -349 83 -463 15 -159 8 -571 -11 -672
-2 -11 -7 -40 -11 -65 -14 -94 -16 -106 -26 -150 -6 -25 -13 -56 -15 -70 -13
-69 -81 -290 -126 -405 -377 -966 -1240 -1674 -2253 -1849 -194 -34 -285 -41
-515 -41 -221 0 -282 4 -490 36 -194 30 -470 109 -655 188 -60 26 -297 144
-340 170 -27 17 -63 37 -80 46 -16 8 -70 44 -119 79 -380 273 -621 531 -875
937 -77 125 -271 558 -271 607 0 5 -9 38 -21 73 -12 35 -23 71 -24 79 -2 8
-12 56 -24 105 -11 50 -25 122 -31 160 -6 39 -13 81 -15 95 -20 112 -27 507
-13 660 48 507 210 960 498 1391 43 64 87 127 98 140 11 13 54 65 95 115 127
152 304 320 487 461 408 313 999 542 1496 578 43 4 80 8 83 10 5 6 467 -3 511
-9z"/>
<path d="M3178 5859 c-82 -13 -151 -37 -213 -74 -75 -45 -106 -74 -159 -150
-70 -98 -98 -189 -97 -315 1 -99 5 -123 36 -216 81 -243 316 -456 561 -509
161 -35 352 -10 465 60 21 14 42 25 46 25 5 0 28 -18 52 -39 36 -31 41 -40 29
-47 -39 -23 -128 -109 -128 -124 0 -16 71 -107 116 -147 23 -21 27 -22 52 -8
15 8 43 29 63 47 66 60 89 78 99 78 5 0 37 -24 72 -53 86 -72 108 -86 125 -80
23 9 133 145 133 164 0 10 -31 44 -69 76 l-70 58 28 25 c61 56 53 55 143 11
46 -22 98 -43 117 -46 19 -3 39 -8 44 -12 5 -3 54 -5 108 -5 224 2 441 106
585 281 122 146 176 289 176 463 -1 270 -183 487 -447 533 -341 59 -707 -160
-832 -499 -48 -129 -53 -299 -13 -419 l23 -68 -34 -28 c-19 -16 -45 -38 -58
-50 -13 -12 -27 -21 -31 -21 -8 0 -114 90 -118 100 -2 4 7 36 19 71 47 137 31
324 -42 479 -94 201 -300 369 -519 423 -78 19 -197 27 -262 16z"/>
<path d="M1813 4252 c-18 -2 -37 -11 -42 -20 -12 -23 -11 -1542 1 -1564 7 -15
23 -18 106 -18 53 0 103 4 111 9 11 7 15 34 16 108 l1 98 2094 0 2094 0 1 -98
c1 -74 5 -101 15 -108 20 -12 186 -12 209 1 17 9 18 51 18 785 0 567 -3 780
-12 791 -9 13 -31 16 -110 15 -54 -1 -103 -5 -109 -11 -6 -6 -10 -29 -11 -53
l0 -42 -2096 -3 -2096 -2 2 40 c1 22 -3 47 -9 55 -11 14 -114 24 -183 17z
m345 -222 l0 -40 -58 0 c-52 0 -58 2 -62 23 -9 49 -1 57 62 57 l59 0 -1 -40z
m192 0 l0 -40 -59 0 c-64 0 -72 8 -63 58 4 20 10 22 63 22 l59 0 0 -40z m190
0 l0 -40 -60 0 -60 0 0 40 0 40 60 0 60 0 0 -40z m190 0 l0 -40 -60 0 -60 0 0
40 0 40 60 0 60 0 0 -40z m190 0 l0 -40 -60 0 -60 0 0 40 0 40 60 0 60 0 0
-40z m190 0 l0 -40 -60 0 -60 0 0 40 0 40 60 0 60 0 0 -40z m190 0 l0 -40 -59
0 -59 0 0 40 -1 40 60 0 59 0 0 -40z m192 12 c7 -47 0 -52 -61 -52 l-58 0 -1
40 -2 40 59 0 c57 0 59 -1 63 -28z m190 -7 c2 -20 2 -38 -1 -40 -2 -3 -30 -5
-61 -5 l-57 0 -1 32 c0 18 1 36 4 40 3 4 29 8 58 8 l54 0 4 -35z m193 -5 l0
-35 -62 -3 -63 -3 0 41 0 41 62 -3 62 -3 1 -35z m188 28 c2 -7 3 -24 2 -38 -2
-24 -5 -25 -60 -25 -55 0 -58 1 -60 25 -4 44 4 50 60 50 33 0 55 -5 58 -12z
m188 5 c0 -5 2 -16 4 -27 7 -37 -5 -46 -61 -46 -30 0 -55 5 -55 10 -4 33 -5
56 -2 63 2 4 29 7 59 7 30 0 54 -3 55 -7z m199 -33 l0 -40 -60 0 c-33 0 -61 5
-61 10 -4 33 -5 56 -2 63 2 4 31 7 64 7 l59 0 0 -40z m187 -2 l1 -38 -58 0
c-52 0 -58 2 -62 23 -9 50 -1 58 60 55 l57 -3 2 -37z m193 2 l0 -40 -60 0 -60
0 0 40 0 40 60 0 60 0 0 -40z m188 0 l0 -40 -58 0 c-52 0 -58 2 -62 23 -9 49
-1 57 62 57 l59 0 -1 -40z m192 0 l0 -40 -60 0 -60 0 0 40 0 40 60 0 60 0 0
-40z m190 0 l0 -40 -60 0 -60 0 0 40 0 40 60 0 60 0 0 -40z m190 0 l0 -40 -60
0 -60 0 0 40 0 40 60 0 60 0 0 -40z m190 0 l0 -40 -60 0 -60 0 0 40 0 40 60 0
60 0 0 -40z m190 0 l0 -40 -60 0 -60 0 0 40 0 40 60 0 60 0 0 -40z m192 5 c2
-20 2 -38 -1 -40 -2 -3 -30 -5 -61 -5 l-58 0 0 40 -1 40 59 0 58 0 4 -35z
m-4005 -155 l0 -40 -57 0 -58 0 -4 40 -4 40 62 0 61 0 0 -40z m193 0 l0 -40
-59 0 -59 0 -4 35 c-2 20 -2 38 1 40 2 3 31 5 63 5 l58 0 0 -40z m190 0 l0
-40 -60 0 -60 0 0 40 0 40 60 0 60 0 0 -40z m190 0 l0 -40 -60 0 -60 0 0 40 0
40 60 0 60 0 0 -40z m190 0 l0 -40 -60 0 -60 0 0 40 0 40 60 0 60 0 0 -40z
m192 18 c9 -50 1 -58 -63 -58 l-59 0 0 40 0 40 59 0 c53 0 59 -2 63 -22z m191
-10 c-1 -18 -2 -36 -2 -40 -1 -5 -28 -8 -60 -8 l-60 0 2 40 2 40 60 0 60 0 -2
-32z m188 22 c7 -66 7 -65 -56 -65 l-60 0 -2 38 -2 37 59 0 c33 0 60 -4 61
-10z m190 -2 c0 -7 2 -25 3 -40 2 -28 1 -28 -59 -28 l-61 0 -1 40 -1 40 59 0
c40 0 59 -4 60 -12z m194 -28 l0 -35 -62 -3 -62 -3 2 41 2 41 60 -3 60 -3 0
-35z m190 -2 l1 -38 -61 0 -61 0 2 38 c1 20 2 38 3 40 0 2 27 2 58 0 l58 -3 0
-37z m190 5 l-1 -38 -60 0 -59 0 0 38 -1 37 61 0 61 0 -1 -37z m193 0 l-3 -38
-60 0 -59 0 -1 38 -1 37 63 0 64 0 -3 -37z m189 -3 l0 -40 -61 0 -61 0 0 40 0
40 61 0 61 0 0 -40z m193 0 l0 -40 -60 0 -60 0 0 40 0 40 60 0 60 0 0 -40z
m187 -2 l1 -38 -61 0 -62 0 2 32 c1 18 2 37 2 41 1 4 27 7 59 5 l57 -3 2 -37z
m193 2 l0 -40 -60 0 -60 0 0 40 0 40 60 0 60 0 0 -40z m190 0 l0 -40 -60 0
-60 0 0 40 0 40 60 0 60 0 0 -40z m190 0 l0 -40 -60 0 -60 0 0 40 0 40 60 0
60 0 0 -40z m190 0 l0 -40 -60 0 -60 0 0 40 0 40 60 0 60 0 0 -40z m192 5 c2
-20 2 -38 -1 -40 -2 -3 -31 -5 -63 -5 l-58 0 0 40 0 40 59 0 59 0 4 -35z m191
15 c12 -47 -1 -60 -63 -60 l-57 0 0 40 0 40 57 0 c49 0 58 -3 63 -20z m-4006
-170 l0 -40 -57 0 -58 0 -4 35 c-2 20 -2 38 1 40 2 3 30 5 61 5 l57 0 0 -40z
m193 0 l0 -40 -60 0 -60 0 0 40 0 40 60 0 60 0 0 -40z m190 0 l0 -40 -60 0
-60 0 0 40 0 40 60 0 60 0 0 -40z m190 0 l0 -40 -60 0 -60 0 0 40 0 40 60 0
60 0 0 -40z m190 0 l0 -40 -60 0 -60 0 0 40 0 40 60 0 60 0 0 -40z m190 0 l0
-40 -60 0 -60 0 0 40 0 40 60 0 60 0 0 -40z m190 0 l0 -40 -60 0 -61 0 3 40 2
40 58 0 58 0 0 -40z m192 23 c2 -10 2 -28 0 -40 -4 -21 -10 -23 -62 -23 l-58
0 0 40 -1 40 59 0 c48 0 59 -3 62 -17z m190 -5 c9 -50 0 -58 -61 -58 l-57 0
-1 40 -1 40 58 0 c52 0 58 -2 62 -22z m193 -18 l-1 -35 -62 -3 -62 -3 0 41 0
41 63 -3 62 -3 0 -35z m190 10 c1 -14 0 -31 -2 -37 -6 -16 -112 -18 -114 -3
-4 33 -5 56 -1 63 2 4 29 7 60 5 51 -3 56 -5 57 -28z m189 -2 c-1 -16 -2 -32
-3 -38 -1 -11 -111 -14 -112 -2 0 4 -2 15 -4 26 -7 39 5 47 64 44 54 -3 56 -4
55 -30z m193 -5 l-2 -38 -60 0 c-59 0 -59 0 -60 30 -1 17 0 33 3 38 2 4 30 7
63 7 l59 0 -3 -37z m190 0 l-2 -38 -57 -3 c-61 -3 -69 5 -60 56 4 20 10 22 63
22 l58 0 -2 -37z m193 -3 l0 -40 -60 0 -60 0 0 40 0 40 60 0 60 0 0 -40z m187
0 l1 -40 -58 0 -58 0 -4 35 c-2 20 -2 38 1 40 2 3 30 5 61 5 l56 0 1 -40z
m193 0 l0 -40 -60 0 -60 0 0 40 0 40 60 0 60 0 0 -40z m190 0 l0 -40 -60 0
-60 0 0 40 0 40 60 0 60 0 0 -40z m190 0 l0 -40 -60 0 -60 0 0 40 0 40 60 0
60 0 0 -40z m190 0 l0 -40 -60 0 -60 0 0 40 0 40 60 0 60 0 0 -40z m190 0 l0
-40 -60 0 -60 0 0 40 0 40 60 0 60 0 0 -40z m192 23 c2 -10 2 -28 0 -41 -4
-21 -9 -23 -61 -20 l-56 3 -2 38 -2 37 59 0 c48 0 59 -3 62 -17z m-4004 -173
l2 -40 -59 0 -59 0 -4 40 -4 40 62 0 61 0 1 -40z m192 0 l0 -40 -60 0 -60 0 0
40 0 40 60 0 60 0 0 -40z m190 0 l0 -40 -60 0 -60 0 0 40 0 40 60 0 60 0 0
-40z m190 0 l0 -40 -60 0 -60 0 0 40 0 40 60 0 60 0 0 -40z m190 0 l0 -40 -60
0 -60 0 0 40 0 40 60 0 60 0 0 -40z m190 0 l0 -40 -60 0 -60 0 0 40 0 40 60 0
60 0 0 -40z m192 12 c7 -47 0 -52 -62 -52 l-58 0 0 40 -1 40 58 0 c57 0 59 -1
63 -28z m188 -12 l0 -40 -60 0 -60 0 0 40 0 40 60 0 60 0 0 -40z m192 28 c2
-6 2 -24 0 -40 -4 -27 -6 -28 -63 -28 l-58 0 1 40 0 40 58 0 c35 0 60 -5 62
-12z m193 -28 l0 -40 -62 0 -63 0 2 40 1 40 62 0 61 0 -1 -40z m190 0 l0 -35
-60 0 c-60 0 -60 0 -61 30 0 44 3 46 64 43 l57 -3 0 -35z m190 -3 l1 -38 -61
3 -60 3 0 38 -1 38 60 -3 60 -3 1 -38z m193 3 l0 -41 -62 3 c-60 3 -61 3 -62
33 0 17 2 33 4 38 2 4 30 7 62 7 l59 0 -1 -40z m190 0 l2 -40 -59 0 c-64 0
-70 5 -63 52 4 27 6 28 61 28 l58 0 1 -40z m190 0 l-1 -40 -59 0 -58 0 0 40 0
40 60 0 60 0 -2 -40z m190 0 l1 -40 -58 0 c-53 0 -59 2 -63 23 -9 49 0 57 62
57 l58 0 0 -40z m192 0 l0 -40 -59 0 c-53 0 -59 2 -63 23 -9 49 -1 57 63 57
l59 0 0 -40z m190 0 l0 -40 -60 0 -60 0 0 40 0 40 60 0 60 0 0 -40z m190 0 l0
-40 -60 0 -60 0 0 40 0 40 60 0 60 0 0 -40z m190 0 l0 -40 -60 0 -60 0 0 40 0
40 60 0 60 0 0 -40z m192 18 c9 -50 1 -58 -63 -58 l-59 0 0 40 0 40 59 0 c53
0 59 -2 63 -22z m190 10 c2 -6 2 -24 0 -40 -4 -27 -6 -28 -63 -28 l-59 0 2 40
1 40 58 0 c35 0 59 -5 61 -12z m-4005 -180 l2 -38 -58 0 c-53 0 -59 2 -63 23
-9 50 -1 58 60 55 l57 -3 2 -37z m193 2 l0 -40 -59 0 c-64 0 -72 8 -63 58 4
20 10 22 63 22 l59 0 0 -40z m190 0 l0 -40 -60 0 -60 0 0 40 0 40 60 0 60 0 0
-40z m190 0 l0 -40 -60 0 -60 0 0 40 0 40 60 0 60 0 0 -40z m190 0 l0 -40 -60
0 -60 0 0 40 0 40 60 0 60 0 0 -40z m190 0 l0 -40 -60 0 -60 0 0 40 0 40 60 0
60 0 0 -40z m192 5 c2 -20 2 -38 -1 -40 -2 -3 -30 -5 -61 -5 l-56 0 -1 40 -1
40 58 0 58 0 4 -35z m188 -5 l0 -40 -60 0 -60 0 0 40 0 40 60 0 60 0 0 -40z
m192 18 c9 -50 0 -58 -61 -58 l-58 0 -1 32 c0 18 1 36 4 40 3 4 29 8 58 8 48
0 54 -2 58 -22z m193 -18 l0 -35 -61 -3 -62 -3 0 41 -1 41 62 -3 61 -3 1 -35z
m186 33 c0 -5 2 -16 4 -27 7 -37 -5 -46 -60 -46 -55 0 -67 9 -60 46 2 11 4 22
4 27 1 4 26 7 56 7 30 0 55 -3 56 -7z m192 -5 c2 -7 3 -24 2 -38 -1 -23 -6
-25 -58 -28 -35 -2 -57 1 -58 8 -4 34 -5 56 -2 63 7 13 110 8 116 -5z m197
-28 l0 -40 -60 0 c-33 0 -61 5 -61 10 -4 33 -5 56 -2 63 2 4 31 7 64 7 l59 0
0 -40z m188 0 l0 -40 -58 0 c-62 0 -69 5 -62 52 4 27 6 28 63 28 l58 0 -1 -40z
m192 0 l0 -40 -60 0 -60 0 0 40 0 40 60 0 60 0 0 -40z m188 0 l1 -40 -58 0
c-53 0 -59 2 -63 23 -9 49 0 57 62 57 l58 0 0 -40z m192 0 l0 -40 -59 0 c-64
0 -72 8 -63 58 4 20 10 22 63 22 l59 0 0 -40z m190 0 l0 -40 -60 0 -60 0 0 40
0 40 60 0 60 0 0 -40z m190 0 l0 -40 -60 0 -60 0 0 40 0 40 60 0 60 0 0 -40z
m190 0 l0 -40 -60 0 -60 0 0 40 0 40 60 0 60 0 0 -40z m190 0 l0 -40 -60 0
-60 0 0 40 0 40 60 0 60 0 0 -40z m192 5 c2 -20 2 -38 -1 -40 -2 -3 -30 -5
-62 -5 l-57 0 1 40 1 40 57 0 57 0 4 -35z m-4005 -155 l1 -40 -58 0 c-49 0
-58 3 -63 20 -12 47 1 60 62 60 l57 0 1 -40z m193 0 l0 -40 -60 0 -60 0 0 40
0 40 60 0 60 0 0 -40z m190 0 l0 -40 -60 0 -60 0 0 40 0 40 60 0 60 0 0 -40z
m190 0 l0 -40 -60 0 -60 0 0 40 0 40 60 0 60 0 0 -40z m190 0 l0 -40 -60 0
-60 0 0 40 0 40 60 0 60 0 0 -40z m192 0 l-4 -40 -59 0 -59 0 0 40 0 40 63 0
63 0 -4 -40z m189 35 c3 -2 3 -20 1 -40 l-4 -35 -57 0 -57 0 -1 40 -1 40 57 0
c32 0 60 -2 62 -5z m189 -35 l0 -40 -59 0 -60 0 1 40 0 40 59 0 59 0 0 -40z
m191 28 c0 -7 2 -25 3 -40 2 -28 1 -28 -59 -28 l-61 0 -1 40 -1 40 59 0 c40 0
59 -4 60 -12z m194 -28 l0 -35 -62 -3 -63 -3 0 41 0 41 63 -3 62 -3 0 -35z
m190 -3 l1 -38 -61 3 c-59 3 -60 3 -60 33 -1 44 2 46 63 43 l57 -3 0 -38z
m190 6 l0 -38 -60 0 -59 0 -1 38 -1 37 61 0 61 0 -1 -37z m193 0 l-3 -38 -61
-3 -60 -3 2 38 c1 21 2 39 3 41 1 1 28 2 62 2 l60 0 -3 -37z m189 -3 l1 -40
-59 0 c-40 0 -59 4 -60 13 0 6 -2 24 -3 40 -2 27 -1 27 59 27 l61 0 1 -40z
m191 3 l-3 -38 -57 -3 -58 -3 0 41 0 40 61 0 60 0 -3 -37z m189 -3 l1 -40 -58
0 c-62 0 -69 5 -62 52 4 27 6 28 61 28 l57 0 1 -40z m193 0 l0 -40 -59 0 c-64
0 -70 5 -63 52 4 27 6 28 63 28 l59 0 0 -40z m190 0 l0 -40 -60 0 -60 0 0 40
0 40 60 0 60 0 0 -40z m190 0 l0 -40 -60 0 -60 0 0 40 0 40 60 0 60 0 0 -40z
m190 0 l0 -40 -60 0 -60 0 0 40 0 40 60 0 60 0 0 -40z m190 0 l0 -40 -60 0
-60 0 0 40 0 40 60 0 60 0 0 -40z m192 23 c2 -10 2 -28 0 -40 -4 -21 -10 -23
-61 -23 l-57 0 -1 40 -1 40 58 0 c48 0 59 -3 62 -17z m-4005 -173 l2 -40 -59
0 c-52 0 -58 2 -62 23 -9 49 0 57 60 57 l57 0 2 -40z m193 0 l0 -40 -60 0 -60
0 0 40 0 40 60 0 60 0 0 -40z m190 0 l0 -40 -60 0 -60 0 0 40 0 40 60 0 60 0
0 -40z m190 0 l0 -40 -60 0 -60 0 0 40 0 40 60 0 60 0 0 -40z m190 0 l0 -40
-60 0 -60 0 0 40 0 40 60 0 60 0 0 -40z m191 35 c3 -2 3 -20 1 -40 l-4 -35
-59 0 -59 0 0 40 0 40 58 0 c32 0 61 -2 63 -5z m191 -7 c2 -6 2 -24 0 -40 -4
-28 -5 -29 -61 -26 l-56 3 -2 38 -2 37 59 0 c35 0 60 -5 62 -12z m188 -28 l0
-40 -60 0 -60 0 0 40 0 40 60 0 60 0 0 -40z m192 23 c2 -10 2 -28 0 -40 -4
-21 -10 -23 -61 -23 l-57 0 -1 40 -1 40 58 0 c48 0 59 -3 62 -17z m193 -23
l-1 -35 -60 -3 -61 -3 -1 41 -2 41 63 -3 62 -3 0 -35z m186 33 c1 -5 2 -23 4
-40 l3 -33 -58 0 c-60 0 -72 9 -65 46 2 11 4 22 4 27 1 4 26 7 56 7 30 0 55
-3 56 -7z m194 -23 c1 -14 0 -31 -2 -37 -6 -16 -112 -18 -114 -3 -4 33 -5 56
-1 63 2 4 29 7 60 5 51 -3 56 -5 57 -28z m193 -10 l0 -41 -61 3 c-61 3 -61 3
-62 33 -1 17 0 33 3 38 2 4 30 7 62 7 l59 0 -1 -40z m189 3 l-2 -38 -56 -3
-57 -3 -4 36 c-2 20 -2 38 1 40 2 3 30 5 62 5 l58 0 -2 -37z m193 -3 l0 -40
-60 0 -60 0 0 40 0 40 60 0 60 0 0 -40z m187 0 l-1 -40 -57 0 -57 0 -4 35 c-2
20 -2 38 1 40 2 3 30 5 62 5 l57 0 -1 -40z m193 0 l0 -40 -58 0 c-32 0 -61 2
-63 5 -3 2 -3 20 -1 40 l4 35 59 0 59 0 0 -40z m190 0 l0 -40 -60 0 -60 0 0
40 0 40 60 0 60 0 0 -40z m190 0 l0 -40 -60 0 -60 0 0 40 0 40 60 0 60 0 0
-40z m190 0 l0 -40 -60 0 -60 0 0 40 0 40 60 0 60 0 0 -40z m190 0 l0 -40 -60
0 -60 0 0 40 0 40 60 0 60 0 0 -40z m192 18 c9 -50 1 -58 -62 -58 l-59 0 1 40
0 40 58 0 c52 0 58 -2 62 -22z m-4004 -168 l1 -40 -58 0 c-57 0 -59 1 -63 28
-7 47 0 52 62 52 l58 0 0 -40z m192 0 l0 -40 -60 0 -60 0 0 40 0 40 60 0 60 0
0 -40z m190 0 l0 -40 -60 0 -60 0 0 40 0 40 60 0 60 0 0 -40z m190 0 l0 -40
-60 0 -60 0 0 40 0 40 60 0 60 0 0 -40z m190 0 l0 -40 -60 0 -60 0 0 40 0 40
60 0 60 0 0 -40z m190 0 l0 -40 -60 0 -60 0 0 40 0 40 60 0 60 0 0 -40z m192
12 c7 -47 0 -52 -61 -52 l-58 0 -1 40 -2 40 59 0 c57 0 59 -1 63 -28z m190 6
c9 -50 1 -58 -63 -58 l-59 0 0 40 0 40 59 0 c53 0 59 -2 63 -22z m189 10 c0
-7 2 -25 3 -40 2 -28 1 -28 -60 -28 l-62 0 0 40 -1 40 60 0 c40 0 59 -4 60
-12z m194 -28 l0 -40 -61 0 -62 0 0 40 -1 40 63 0 62 0 -1 -40z m190 0 l0 -40
-60 0 -60 0 0 40 0 40 60 0 60 0 0 -40z m190 0 l0 -41 -60 3 -60 3 0 38 -1 37
61 0 61 0 -1 -40z m193 0 l-2 -40 -61 0 -61 0 2 38 c1 20 2 38 3 40 1 1 28 2
61 2 l61 0 -3 -40z m190 0 l-1 -40 -58 0 c-61 0 -70 8 -61 58 4 20 10 22 63
22 l59 0 -2 -40z m190 0 l-2 -40 -57 0 c-51 0 -57 2 -61 23 -9 50 -1 57 63 57
l60 0 -3 -40z m190 0 l-1 -40 -57 0 c-52 0 -58 2 -62 23 -9 49 -1 57 63 57
l59 0 -2 -40z m192 0 l0 -40 -60 0 -60 0 0 40 0 40 60 0 60 0 0 -40z m190 0
l0 -40 -60 0 -60 0 0 40 0 40 60 0 60 0 0 -40z m190 0 l0 -40 -60 0 -60 0 0
40 0 40 60 0 60 0 0 -40z m190 0 l0 -40 -60 0 -60 0 0 40 0 40 60 0 60 0 0
-40z m190 0 l0 -40 -60 0 -60 0 0 40 0 40 60 0 60 0 0 -40z m192 23 c2 -10 2
-28 0 -40 -4 -21 -10 -23 -63 -23 l-58 0 1 40 0 40 58 0 c48 0 59 -3 62 -17z"/>
<path d="M2058 1518 l-26 -41 69 -49 69 -49 -42 -62 c-23 -34 -82 -120 -131
-190 -48 -71 -86 -131 -83 -134 3 -3 27 -20 53 -38 l48 -32 35 51 c20 28 79
113 131 188 52 76 97 138 101 138 4 0 36 -20 72 -45 l64 -45 31 41 c17 23 28
45 26 49 -7 12 -372 260 -382 260 -4 0 -20 -19 -35 -42z"/>
<path d="M6095 1531 c-22 -16 -106 -75 -188 -131 l-147 -102 16 -26 c41 -71
36 -70 114 -17 38 27 71 47 73 44 5 -7 108 -156 182 -264 37 -55 71 -103 74
-107 9 -10 107 61 103 74 -2 6 -59 91 -127 190 -69 99 -123 183 -121 187 3 4
34 26 69 51 l65 44 -29 43 c-17 24 -33 43 -37 43 -4 -1 -25 -14 -47 -29z"/>
<path d="M2548 1186 c-15 -34 -64 -142 -108 -241 -45 -99 -86 -190 -90 -202
-8 -20 -3 -25 47 -48 31 -14 57 -24 59 -22 2 2 24 47 48 100 43 91 47 96 68
88 68 -26 121 -57 135 -78 17 -26 16 -32 -20 -158 l-15 -50 57 -27 56 -28 7
33 c4 19 16 57 28 86 23 60 26 118 6 147 -14 19 -12 21 30 32 79 21 126 131
91 213 -19 46 -61 77 -162 122 -44 19 -109 48 -145 65 l-66 29 -26 -61z m215
-136 c27 -13 53 -33 59 -46 20 -44 -18 -114 -63 -114 -12 0 -54 15 -95 33 -82
36 -80 30 -37 123 l24 54 32 -14 c18 -7 54 -24 80 -36z"/>
<path d="M5603 1219 c-24 -11 -43 -24 -43 -28 0 -10 49 -124 104 -245 20 -43
35 -81 32 -83 -2 -3 -82 48 -178 113 -95 64 -177 117 -183 117 -5 0 -33 -10
-62 -22 -59 -26 -59 -17 -3 -139 17 -35 30 -65 30 -67 0 -2 16 -39 36 -82 20
-43 54 -118 76 -168 22 -49 41 -91 42 -92 4 -4 106 46 106 53 0 7 -89 211
-125 287 -13 26 -21 47 -19 47 3 0 85 -54 183 -120 98 -66 181 -120 184 -120
18 0 107 45 107 54 0 23 -224 516 -234 515 -6 0 -30 -9 -53 -20z"/>
<path d="M3208 966 c-113 -31 -194 -143 -205 -286 -14 -177 109 -304 294 -303
143 2 255 121 270 286 7 88 -16 165 -68 222 -69 75 -191 109 -291 81z m164
-122 c60 -31 85 -119 60 -208 -36 -129 -119 -177 -226 -132 -51 21 -71 58 -73
139 -4 170 111 267 239 201z"/>
<path d="M4923 967 c-23 -7 -44 -14 -46 -17 -3 -3 -8 -32 -12 -65 -3 -33 -8
-73 -10 -90 -3 -16 -7 -50 -9 -75 -12 -119 -18 -167 -22 -190 -2 -14 -7 -62
-10 -107 l-6 -81 60 15 c57 14 60 16 66 51 3 21 6 51 6 68 0 31 1 32 88 53 48
12 94 24 103 27 11 3 28 -13 52 -51 40 -59 46 -61 134 -31 l32 11 -172 247
c-185 265 -175 256 -254 235z m110 -235 c35 -52 52 -84 44 -87 -21 -7 -120
-35 -124 -35 -2 0 -1 28 3 63 4 34 8 76 9 92 2 17 3 36 4 44 1 18 -2 22 64
-77z"/>
<path d="M3689 834 c-1 -50 -2 -74 -13 -216 -3 -46 -8 -128 -12 -183 -4 -55
-8 -103 -10 -107 -10 -17 13 -20 256 -34 63 -4 130 -7 149 -8 l34 -1 3 53 3
52 -32 1 c-18 0 -41 2 -52 4 -20 3 -175 14 -207 15 -15 0 -17 8 -13 53 2 28 4
60 4 70 1 14 8 16 39 13 20 -3 83 -7 138 -11 l102 -7 4 42 c2 22 1 45 -2 50
-5 8 -46 12 -220 24 l-45 3 0 59 c0 57 1 59 25 58 14 -1 82 -5 153 -9 l127 -7
0 54 0 55 -57 2 c-32 2 -74 4 -93 6 -19 1 -90 6 -157 10 l-123 7 -1 -48z"/>
<path d="M4277 862 c-14 -3 -16 -11 -12 -45 2 -23 7 -69 10 -102 3 -33 8 -79
10 -102 9 -79 14 -127 21 -198 7 -68 10 -101 13 -119 0 -4 27 -5 59 -2 78 10
126 15 197 21 33 3 79 8 103 11 l43 6 -2 42 c-4 61 -7 66 -42 61 -18 -2 -63
-7 -102 -10 -38 -4 -84 -8 -102 -11 -17 -3 -33 -1 -36 3 -3 4 -8 44 -12 88 -3
44 -8 94 -10 110 -3 17 -7 59 -10 95 -3 36 -7 74 -10 85 -2 11 -4 33 -4 48 -1
27 -3 28 -48 25 -27 -1 -56 -4 -66 -6z"/>
</g>
</svg>
